<?xml version="1.0" encoding="UTF-8" standalone="no"?>
<svg
   xmlns:dc="http://purl.org/dc/elements/1.1/"
   xmlns:cc="http://creativecommons.org/ns#"
   xmlns:rdf="http://www.w3.org/1999/02/22-rdf-syntax-ns#"
   xmlns:svg="http://www.w3.org/2000/svg"
   xmlns="http://www.w3.org/2000/svg"
   viewBox="0 0 172.912 171.22432"
   height="171.22432"
   width="172.912"
   xml:space="preserve"
   id="svg2"
   version="1.1"><metadata
     id="metadata8"><rdf:RDF><cc:Work
         rdf:about=""><dc:format>image/svg+xml</dc:format><dc:type
           rdf:resource="http://purl.org/dc/dcmitype/StillImage" /><dc:title></dc:title></cc:Work></rdf:RDF></metadata><defs
     id="defs6"><clipPath
       id="clipPath22"
       clipPathUnits="userSpaceOnUse"><path
         id="path20"
         d="M 250,250 H 1650 V 1650 H 250 Z" /></clipPath></defs><g
     transform="matrix(1.3333333,0,0,-1.3333333,-27.199466,229.81199)"
     id="g10"><g
       transform="scale(0.1)"
       id="g12"><g
         style="fill:#ffbc00;fill-opacity:1"
         transform="translate(-46.004,73.59)"
         id="g16"><g
           style="fill:#ffbc00;fill-opacity:1"
           clip-path="url(#clipPath22)"
           id="g18"><path
             id="path24"
             style="fill:#ffbc00;fill-opacity:1;fill-rule:nonzero;stroke:none"
             d="m 317.887,1688.72 c -5.442,-2.87 -13.278,-5.51 -17.235,-5.81 -3.988,-0.3 -6.531,-2.5 -5.644,-4.89 1.633,-4.43 -4.512,-12.34 -9.594,-12.34 -1.957,0 -2.359,1.45 -1.008,3.63 3.586,5.76 -20.031,1.49 -27.652,-5.01 -3.625,-3.09 -6.891,-4.59 -6.891,-3.16 0,1.59 -1.211,0.91 -2.902,-1.63 -1.566,-2.35 -10.34,-7.78 -19.047,-11.79 -8.707,-4.01 -13.973,-7.43 -11.43,-7.43 2.539,0 3.629,-1.76 2.36,-3.81 -1.371,-2.22 -4.715,-2.98 -7.981,-1.82 -3.172,1.13 -8.707,-0.77 -12.699,-4.35 -3.992,-3.58 -8.023,-5.99 -9.25,-5.54 -4.719,1.77 -15.238,-3.05 -15.238,-6.98 0,-2.07 -2.176,-2.85 -5.078,-1.81 -2.758,0.98 -10.883,-2.09 -17.778,-6.71 -6.894,-4.63 -13.691,-7.54 -14.875,-6.35 -1.304,1.3 -2.175,0.72 -2.175,-1.46 0,-2.01 -4.356,-5.56 -9.797,-7.98 -5.442,-2.41 -11.973,-7.49 -14.692,-11.43 -2.765,-3.98 -6.164,-6.33 -7.801,-5.37 -3.5737,2.08 -8.7573,-2.06 -13.48,-10.77 -2.1094,-3.89 -7.3789,-7.76 -11.3711,-8.34 -4.2109,-0.62 -11.6094,-4.95 -17.0508,-9.98 -5.4414,-5.03 -11.1093,-8.02 -13.0625,-6.89 -1.9687,1.14 -3.4453,0.36 -3.4453,-1.82 0,-2.06 -7.0742,-4.89 -15.418,-6.17 -8.3437,-1.27 -13.1718,-3.1 -10.5195,-3.98 3.3125,-1.11 1.082,-5.63 -6.8945,-13.97 -8.67189,-9.07 -13.90236,-11.81 -19.77346,-10.34 -5.44144,1.36 -8.67184,0.21 -10.15624,-3.63 -1.2656,-3.26 -4.3828,-5.62 -7.4375,-5.62 -2.9219,0 -6.1914,-2.9 -7.3516,-6.53 -2.4765,-7.74 -8.9609,-17.42 -19.457,-29.03 -4.5938,-5.07 -8.2031,-10.9 -8.2031,-13.24 0,-2.25 -3.1641,-10.34 -6.8907,-17.59 -3.7265,-7.26 -7.8945,-17.51 -9.0703,-22.32 -1.1562,-4.71 -5.8398,-9.99 -9.9765,-11.24 -5.8047,-1.76 -6.5469,-3.15 -2.9024,-5.44 2.5391,-1.6 6.5547,-2.04 8.3438,-0.91 1.7969,1.13 2.2304,0.18 0.9062,-1.99 -1.3242,-2.18 -4.1015,-3.22 -5.8047,-2.18 -1.8398,1.12 -6.9062,-3.63 -11.6093,-10.89 -4.6995,-7.25 -11.1175,-13.75 -14.6915,-14.87 -3.629,-1.14 -6.352,-4.02 -6.352,-6.71 0,-6.53 8.891,-13.71 12.7,-10.25 1.625,1.47 1.785,0.63 0.363,-1.91 -1.336,-2.38 -5.805,-4.53 -9.434,-4.53 -7.535,0 -29.023,-27.93 -29.023,-37.73 0,-3.79 -3.082,-5.81 -8.887,-5.81 -4.719,0 -9.91,-1.7 -11.066,-3.62 -1.305,-2.18 -3.266,-2.98 -4.899,-2 -1.5,0.9 -5.078,0.09 -7.98,-1.81 -4.477,-2.94 -3.992,-4.53 3.266,-10.71 6.168,-5.24 7.019,-7.25 3.082,-7.25 -2.903,0 -6.118,-1.95 -6.891,-4.17 -0.77,-2.22 -5.625,-4.35 -10.34,-4.54 l -8.891,-0.36 -0.906,-431.36 c -0.66,-313.453 0.239,-432.75 3.281,-436.442 4.801,-5.824 10.618,-2.898 7.942,3.992 -1.285,3.313 0.93,5.52 6.375,6.348 6.766,1.031 8.445,3.813 8.887,14.695 0.339,8.344 -0.829,12.598 -3.082,11.247 -2.293,-1.375 -2.629,0.363 -0.911,4.714 1.434,3.629 3.668,9.989 4.719,13.426 1.11,3.625 4.172,5.723 6.891,4.715 2.543,-0.941 4.945,0.281 4.996,2.539 0.137,6.168 17.086,18.133 21.672,15.301 2.176,-1.344 2.832,-3.547 1.644,-5.504 -3.523,-5.805 2.032,-11.656 7.063,-7.441 5.726,4.804 13.211,-0.54 13.969,-9.973 0.808,-10.063 2.355,-9.906 14.691,1.476 6.5312,6.032 9.7929,12.672 9.7929,19.926 0,6.168 1.418,10.02 3.2657,8.891 1.7968,-1.098 2.4492,-5.262 1.4531,-9.25 -1.3594,-5.445 -0.3633,-6.715 3.9883,-5.082 3.2656,1.226 5.8047,3.289 5.8047,4.719 0,1.41 4.3554,2.875 9.7968,3.293 10.8125,0.832 14.6953,5.05 18.0039,19.562 1.2383,5.441 4.418,10.156 6.8477,10.156 2.5391,0 5.332,1.996 6.3476,4.535 1.4532,3.629 1.8868,3.629 2.1797,0 0.1993,-2.488 4.5313,-4.535 9.6133,-4.535 5.0781,0 8.2695,-1.636 7.0742,-3.625 -1.2031,-2.004 0.1797,-3.629 3.0821,-3.629 2.8047,0 6.19137,2.539 7.25778,5.442 1.15625,3.16 4.35156,5.441 7.61719,5.441 3.26562,0 5.625,1.598 5.625,3.809 0,2.031 2.53906,6.351 5.44143,9.254 6.1679,6.164 7.2539,12.332 2.1758,12.332 -4.46489,0 4.2461,29.75 12.3242,42.086 4.3047,6.574 5.5195,13.058 4,21.402 -1.8438,10.16 -0.9375,12.387 5.9883,14.695 4.3515,1.45 10.5312,2.891 13.2421,3.082 2.8204,0.203 5.5079,3.266 6.043,6.895 1.5,10.156 5.2031,12.223 5.2031,2.902 0,-4.355 -1.8164,-11.445 -3.9921,-15.601 -3.0391,-5.805 -2.8672,-8.266 0.7265,-10.34 3.707,-2.137 3.8125,-3.809 0.5078,-7.801 -5.4101,-6.527 -1.1601,-11.258 5.2969,-5.894 5.2148,4.332 10.1563,1.906 10.1563,-4.989 0,-2.16 3.9921,-4.324 8.707,-4.715 4.7187,-0.394 10.7031,-3.468 13.0625,-6.711 2.375,-3.265 5.3442,-5.988 6.5312,-5.988 3.824,0 2.902,13.875 -1.09,16.336 -4.4217,2.727 -0.726,19.945 5.762,26.836 4.465,4.746 5.191,4.535 5.668,-1.633 0.293,-3.84 1.703,-1.269 3.082,5.625 2.394,11.973 2.57,12.106 3.082,2.36 0.441,-8.344 1.769,-9.922 6.894,-8.164 4.149,1.421 3.266,-0.403 -2.539,-5.262 -5.078,-4.25 -7.41,-8.524 -5.441,-9.977 1.867,-1.375 3.895,-6.527 4.422,-11.246 1.183,-10.519 11.84,-19.406 17.527,-14.609 2.176,1.832 5.063,2.293 6.348,1.004 1.242,-1.239 3.562,0.91 4.898,4.535 1.336,3.629 4.774,9.129 7.254,11.609 2.543,2.539 4.719,6.895 4.719,9.434 0,6.531 -14.215,22.422 -18.867,21.094 -2.317,-0.661 -2.09,1.218 0.547,4.484 2.632,3.266 5.75,4.859 7.437,3.809 1.625,-1.016 3.699,0.179 4.715,2.718 1.305,3.266 1.914,3.317 2.176,0.184 0.207,-2.488 2.539,-3.578 5.441,-2.539 3.485,1.242 5.828,-2.18 7.457,-10.887 3.051,-16.324 11.285,-23.937 14.512,-13.422 1.336,4.356 4.203,7.231 6.691,6.711 2.524,-0.523 3.821,1.996 3.086,5.988 -1.203,6.528 -0.945,6.575 4.899,0.86 8.023,-7.852 11.472,-5.215 14.531,11.113 1.703,9.067 3.461,11.891 5.422,8.707 2.195,-3.57 3.828,-3.086 6.711,1.992 3.5,6.168 3.824,6.184 4.012,0.184 0.21,-6.895 5.667,-8.621 9.16,-2.902 3.281,5.375 11.8,0.726 13.965,-7.622 2.035,-7.859 9.449,-7.253 13.292,1.09 9.684,21.043 13.532,26.848 17.797,26.848 2.496,0 6.848,2.902 9.243,6.168 6.093,8.309 8.043,7.98 10.71,-1.816 1.782,-6.528 2.84,-6.993 5.805,-2.54 1.938,2.903 3.629,4.09 3.629,2.54 0,-1.594 4.172,1.269 9.25,6.351 5.082,5.078 10.809,9.25 12.699,9.25 1.84,0 3.446,2.539 3.446,5.442 0,3.109 2.722,5.441 6.351,5.441 5.442,0 5.57,0.504 0.906,3.512 -5.109,3.297 -4.714,3.894 3.266,4.996 10.52,1.449 28.738,42.285 18.863,42.285 -2.175,0 -3.988,-1.32 -3.988,-2.902 0,-1.637 -2.453,-5.989 -5.625,-9.977 -5.625,-7.074 -5.625,-7.074 -1.996,0.18 2.969,5.937 2.176,8.113 -4.352,11.972 l -7.98,4.715 8.16,-2.176 c 5.441,-1.449 8.859,-0.363 10.246,3.266 3.75,9.797 -0.055,14.727 -6.437,8.344 -7.254,-7.254 -10.157,-7.465 -10.157,-0.727 0,2.903 -1.523,5.442 -3.265,5.442 -1.758,0 -4.102,4.355 -5.078,9.433 -1.328,6.895 -0.743,8.36 2.175,5.442 4.356,-4.352 9.989,-5.223 9.387,-1.45 -1.84,11.61 0.824,18.813 6.215,16.805 4.715,-1.754 5.484,-1.098 3.262,2.785 -1.739,3.047 0,2.469 4.355,-1.453 4.836,-4.351 6.699,-9.43 5.582,-15.234 -1.676,-8.707 6.684,-17.203 9.285,-9.434 1.012,3.016 2.911,3.125 6.176,0.363 3.453,-2.921 10.156,-1.562 25.031,5.079 13.422,5.992 20.379,7.593 20.5,4.714 0.102,-2.453 2.473,-1.269 5.442,2.723 5.258,7.074 5.258,7.074 5.258,-0.18 0,-12.406 3.265,-12.48 26.484,-0.605 22.855,11.691 39.176,25.433 43.375,36.519 1.238,3.266 4.559,6.168 7.055,6.168 3.367,0 3.265,-0.933 -0.364,-3.265 -4.14,-2.66 -3.265,-4.942 4.715,-12.328 11.61,-10.743 12.047,-13.43 2.18,-13.43 -4.356,0 -7.258,-2.32 -7.258,-5.805 0,-4.289 2.176,-5.168 8.344,-3.363 25.394,7.422 33.441,5.574 23.262,-5.344 -3.563,-3.824 -3.125,-4.269 2.316,-2.359 3.629,1.277 7.379,2.359 8.16,2.359 0.801,0 1.453,3.266 1.453,7.258 0,5.805 -2.539,7.254 -12.699,7.254 -14.875,0 -15.582,2.047 -4.351,12.527 5.132,4.793 12.878,7.649 20.132,7.426 8.348,-0.258 11.211,1.07 9.797,4.535 -1.035,2.539 -0.597,4.024 0.906,3.086 1.504,-0.941 5.262,-0.332 7.801,1.27 2.723,1.711 7.801,1.3 11.43,-0.93 8.953,-5.504 19.047,3.285 16.273,14.172 -1.57,6.164 -0.234,8.91 5.129,10.519 3.992,1.196 7.258,3.727 7.258,5.625 0,1.836 2.539,3.446 5.441,3.446 3.161,0 5.442,2.359 5.442,5.621 0,3.265 1.519,4.711 3.629,3.449 2.07,-1.246 3.625,-0.547 3.625,1.633 0,2.133 3.992,3.808 9.07,3.808 5.082,0 9.07,1.594 9.07,3.629 0,1.934 2.539,3.625 5.442,3.625 3.109,0 5.441,3.266 5.441,7.621 0,4.352 1.946,6.918 4.535,5.985 2.477,-0.891 4.043,-4.352 3.45,-7.617 -0.789,-4.325 0.722,-5.328 5.441,-3.621 10.156,3.679 18.285,9.976 18.02,13.96 -0.137,2.047 2.839,4.024 6.832,4.536 3.988,0.511 5.097,-0.043 2.539,-1.27 -2.539,-1.223 -3.637,-3.613 -2.496,-5.445 2.742,-4.383 25.707,11.25 30.914,21.043 2.894,5.441 2.91,9.691 0.058,14.875 -3.39,6.168 -2.902,7.527 3.266,9.07 4.746,1.188 7.258,5.078 7.258,11.246 0,5.078 1.672,9.434 3.629,9.434 6.89,0 13.472,-8.504 11.789,-15.239 -0.907,-3.628 -0.02,-6.531 1.996,-6.531 10.074,0 -5.442,-33.644 -18.141,-39.332 -1.691,-0.758 -4.715,-3.09 -7.254,-5.597 -6.531,-6.442 -28.957,-17.176 -31.203,-14.93 -1.055,1.058 0,1.812 2.539,1.812 2.543,0 3.426,1.512 2.121,3.629 -3.984,6.465 -15.851,-2.902 -13.789,-10.883 1.031,-3.992 0.57,-10.195 -1.027,-13.785 -5.965,-13.425 -4.598,-21.511 4.351,-25.687 4.719,-2.199 8.793,-6.973 8.891,-10.41 0.152,-5.399 0.672,-5.262 3.445,0.906 2.778,6.168 3.293,6.301 3.446,0.906 0.105,-3.629 1.738,-6.348 3.812,-6.348 2.016,0 3.766,-2.902 3.942,-6.531 0.363,-7.586 6.761,11.973 7.949,24.305 0.457,4.719 3.722,9.922 7.515,11.973 4.719,2.55 5.989,2.441 4.27,-0.364 -3.106,-5.078 2.805,-5.078 7.887,0 2.859,2.86 7.437,2.86 16.144,0 6.75,-2.215 19.406,-3.019 28.477,-1.812 9.07,1.211 19.55,2.015 23.582,1.812 3.957,-0.195 13.605,-0.277 21.222,-0.179 10.161,0.132 13.227,-1.008 11.246,-4.172 -1.812,-2.903 -0.722,-3.629 3.266,-2.176 3.629,1.316 5.988,0.531 5.988,-1.996 0,-3.129 1.086,-3.086 4.352,0.18 2.445,2.445 8.891,4.355 14.695,4.355 5.805,0 11.246,2.387 12.407,5.441 2.48,6.532 11.968,7.102 12.035,0.727 0.035,-3.227 0.89,-3.086 3.312,0.543 2.27,3.406 5.805,4.035 11.61,2.066 11.246,-3.816 12.652,-4.097 23.218,-4.652 5.078,-0.27 8.512,-2.004 7.438,-3.762 -1.117,-1.824 -5.446,-2.383 -9.797,-1.269 -5.078,1.297 -8.875,-0.031 -10.883,-3.813 -2.48,-4.664 -7.074,-5.375 -23.402,-3.625 -17.414,1.864 -20.887,1.192 -24.305,-4.718 -3.746,-6.469 -4.125,-6.348 -6.168,1.996 l -2.176,8.89 -7.984,-7.984 c -4.352,-4.352 -9.629,-7.981 -11.609,-7.981 -2.071,0 -6.348,-1.398 -9.977,-3.265 -3.398,-1.75 -11.062,-5.453 -16.508,-7.981 -5.804,-2.695 -9.379,-6.738 -8.344,-9.433 3.227,-8.383 -5.441,-22.231 -15.597,-24.922 -20.68,-5.481 -40.117,-5.043 -43.52,0.976 -2.847,5.039 -4.551,4.536 -12.894,-3.808 -6.895,-6.891 -12.028,-8.996 -18.141,-7.438 -4.715,1.207 -12.094,0.235 -16.508,-2.175 -4.351,-2.375 -9.054,-3.118 -10.34,-1.633 -1.32,1.523 -0.363,3.441 2.176,4.355 2.543,0.914 6.531,3.547 9.071,5.985 2.519,2.418 17.597,9.578 33.921,16.109 29.024,11.609 44.989,24.043 44.989,35.043 0,3.266 -1.59,4.855 -3.629,3.629 -2.176,-1.305 -3.629,-0.727 -3.629,1.453 0,2.105 -2.359,2.715 -5.621,1.449 -3.266,-1.262 -4.867,-4.152 -3.821,-6.89 2.774,-7.258 -4.609,-10.024 -11.601,-4.352 -5.078,4.125 -5.524,3.988 -3.578,-1.094 2.679,-6.984 -9.844,-15.133 -18.914,-12.304 -3.992,1.242 -8.114,-0.067 -9.797,-3.114 -1.574,-2.855 -8.707,-6.336 -15.598,-7.617 -9.433,-1.754 -11.301,-1.379 -7.258,1.449 4.664,3.266 4.536,3.813 -0.906,3.813 -3.629,0 -6.348,-2.18 -6.348,-5.082 0,-4.352 -26.152,-23.231 -27.64,-19.953 -0.352,0.773 -3.961,-2.356 -7.731,-6.711 -3.773,-4.352 -9.871,-8.164 -13.062,-8.164 -3.324,0 -8.887,-2.821 -12.516,-6.348 -3.648,-3.547 -11.972,-9.445 -18.867,-13.363 -12.367,-7.035 -42.445,-28.789 -55.144,-39.883 -3.625,-3.172 -8.868,-5.707 -11.79,-5.707 -2.894,0 -7.546,-3.266 -10.339,-7.258 -2.793,-3.988 -6.141,-6.191 -7.438,-4.895 -1.265,1.266 -2.359,-1.089 -2.359,-5.082 0,-4.054 -3.625,-9.832 -7.981,-12.703 -15.859,-10.472 -42.711,-40.445 -58.332,-65.113 -10.797,-17.051 -6.574,-19.121 5.188,-2.539 13.383,18.863 21.094,25.574 25.937,22.566 2.266,-1.406 2.809,-0.074 1.449,3.555 -1.222,3.262 -0.667,6.754 1.27,7.981 1.855,1.171 3.449,0 3.449,-2.54 0,-3.578 0.828,-3.449 3.446,0.543 1.902,2.903 2.468,6.805 1.269,8.707 -1.137,1.797 -0.184,2.231 1.996,0.907 2.528,-1.539 4.172,-0.18 4.172,3.449 0,3.988 1.813,5.32 5.441,3.988 2.903,-1.062 5.442,-0.386 5.442,1.453 0,2.067 1.449,3.446 3.629,3.446 2.176,0 1.812,-2.903 -0.906,-7.258 -2.497,-3.988 -6.168,-7.254 -8.165,-7.254 -4.285,0 -27.21,-33.016 -27.21,-39.184 0,-2.539 -1.512,-4.351 -3.625,-4.351 -2.051,0 -2.719,-3.629 -1.536,-8.344 2.368,-9.434 -10.933,-42.172 -14.004,-34.465 -1.5,3.774 -1.949,3.629 -2.238,-0.726 -0.191,-2.864 2.903,-7.504 6.528,-9.797 5.582,-3.524 6.871,-8.707 6.777,-27.207 -0.238,-47.164 0.058,-48.75 9.914,-53.129 6.891,-3.063 8.82,-6.149 7.164,-11.449 -2.496,-7.981 3.535,-21.766 9.523,-21.766 1.911,0 2.598,3.262 1.45,6.891 -1.145,3.629 -0.457,8.011 1.453,9.254 1.953,1.269 2.789,4.531 1.812,7.074 -1.019,2.652 0.727,5.746 3.992,7.074 3.993,1.621 5.012,1.055 3.266,-1.816 -1.738,-2.852 -0.363,-3.344 4.352,-1.555 12.336,4.676 14.187,4.015 14.441,-5.156 0.352,-12.7 8.273,-34.817 14.219,-39.715 3.629,-2.989 7.258,-3.024 12.699,-0.125 7.98,4.25 9.965,0.465 3.266,-6.235 -2.282,-2.281 -2.953,-7.254 -1.575,-11.609 3.098,-9.75 14.618,-4.352 15.485,7.258 0.867,11.605 4.437,13.496 10.297,5.441 4.824,-6.636 7.222,-3.992 5.593,6.164 -0.711,4.446 5.969,2.903 7.856,-1.812 1.031,-2.571 2.051,-1.086 2.25,3.265 0.199,4.352 2.59,9.301 5.262,10.883 2.718,1.614 5.945,5.805 7.254,9.434 1.312,3.629 3.972,5.562 5.988,4.351 1.953,-1.171 3.625,0 3.625,2.543 0,2.641 3.195,8.707 7.258,13.786 6.093,7.617 7.254,8.023 7.254,2.539 0,-3.629 1.453,-5.645 3.265,-4.536 1.828,1.118 4.067,0 5.082,-2.539 1.02,-2.558 1.969,-1.453 2.176,2.539 0.258,5.079 1.488,5.95 4.352,3.082 2.882,-2.878 8.89,0.86 21.585,13.426 9.797,9.696 18.079,16.125 18.684,14.512 0.609,-1.621 3.891,2.539 7.438,9.434 5.418,10.519 5.55,12.332 0.906,12.332 -7.594,0 -6.528,7.339 1.09,7.484 8.343,0.164 23.047,12.516 21.746,18.273 -0.594,2.621 3.285,6.868 8.73,9.559 10.52,5.199 13.242,13.516 5.442,16.637 -2.438,0.976 -0.364,1.98 4.714,2.285 6.2,0.371 12.227,5.078 19.047,14.875 7.325,10.519 12.149,14.09 18.141,13.422 6.527,-0.723 7.906,0.547 6.891,6.351 -0.696,3.989 -2.739,7.797 -4.536,8.457 -7.625,2.813 -2.539,7.957 5.805,5.871 9.488,-2.371 11.055,0.184 6.777,11.067 -1.851,4.715 -3.093,5.058 -5.281,1.449 -5.14,-8.48 -9.5,1.453 -7.797,17.777 1.434,13.786 2.243,14.875 8.481,11.43 5.441,-3.008 6.89,-2.59 6.89,1.996 0,8.977 12.098,4.715 14.414,-5.082 2.059,-8.707 10.985,-15.191 10.985,-7.98 0,1.933 2.539,4.136 5.441,4.715 4.879,0.976 4.879,2.179 0,11.609 -4.879,9.433 -4.769,11.035 1.086,15.473 12.418,9.414 15.539,6.296 14.047,-14.02 -1.383,-18.867 2.645,-28.297 12.074,-28.297 3.235,0 3.094,1.633 -0.543,6.348 -4.199,5.441 -4.121,5.765 0.543,2.269 8.344,-6.261 24.602,-9.234 27.254,-4.992 1.731,2.766 3.946,2.766 7.211,0 3.266,-2.762 5.442,-2.816 7.074,-0.18 1.348,2.176 3.606,3.051 5.262,2.04 5.078,-3.094 12.539,8.664 8.719,13.742 -1.84,2.445 -3.594,8.89 -4.004,14.695 -0.66,9.43 -0.168,9.906 5.625,5.441 3.629,-2.8 7.359,-6.296 8.707,-8.164 1.316,-1.824 3.398,0.18 4.715,4.536 1.316,4.351 5.566,7.8 9.617,7.8 3.988,0 6.273,-1.633 5.078,-3.629 -1.308,-2.175 -3.555,-2.828 -5.625,-1.632 -1.969,1.14 -3.445,0.363 -3.445,-1.813 0,-2.117 2.902,-3.785 6.531,-3.75 7.254,0.066 19.688,7.059 12.695,7.141 -2.976,0.035 -2.175,2.593 2.18,6.949 9.066,9.066 15.117,10.91 22.856,6.961 5.078,-2.594 6.527,-1.922 6.527,3.015 0,4.715 1.07,5.274 4.17,2.176 3.13,-3.129 6.35,-2.722 12.88,1.633 6.53,4.352 10.8,4.859 17.06,2.02 10.15,-4.61 27.57,3.382 28,12.855 0.19,3.988 0.93,4.5 2.1,1.449 1.43,-3.703 2.91,-3.82 6.9,-0.543 2.9,2.383 5.08,3.082 5.08,1.633 0,-1.355 2.54,-0.508 5.44,1.813 3.26,2.613 5.44,2.832 5.44,0.543 0,-2.481 2.9,-2.286 8.34,0.574 10.16,5.332 20.68,15.285 20.68,19.562 0,1.868 3.27,3.5 7.62,3.809 4.36,0.312 10.27,2.934 13.79,6.121 7.62,6.891 31.76,12.391 28.07,6.395 -1.74,-2.829 -0.14,-4.352 4.58,-4.352 7.98,0 14.28,6.902 6.89,7.562 -2.67,0.239 0,1.52 6.17,2.958 6.17,1.441 12.14,0.89 13.79,-1.27 1.62,-2.133 2.42,0.184 1.81,5.262 -0.99,8.293 0,9.008 11.61,8.343 6.89,-0.394 9.88,0.094 6.53,1.067 -12.65,3.676 -2.9,15.855 10.89,13.598 7.88,-1.29 9.48,1.296 8.2,13.269 -0.42,3.91 1,3.449 5.04,-1.633 4.03,-5.078 5.62,-5.59 5.62,-1.812 0,4.558 0.48,4.535 3.63,-0.18 2.42,-3.629 3.63,-3.934 3.63,-0.91 0,2.422 2.54,4.535 5.44,4.535 2.9,0 5.44,-1.691 5.44,-3.625 0,-1.937 3.81,-3.543 8.16,-3.449 7.62,0.172 7.68,0.39 0.91,3.293 -7.83,3.355 -7.62,3.527 10.88,9.051 3.41,1.015 4.6,3.8 3.21,7.429 -4.48,11.61 17.63,15.141 25,3.992 1.75,-2.66 2.63,-2.179 2.63,1.45 0,4.355 0.66,4.425 3.3,0.363 4.36,-6.719 16.61,-2.176 21.51,7.98 2.1,4.356 3.93,5.84 4.03,3.266 0.14,-3.578 1.46,-3.488 5.44,0.363 2.77,2.672 4.41,8.344 3.45,11.973 -1.58,6.008 -5.08,6.848 -27.21,6.531 -18.5,-0.265 -26.92,1.114 -31.02,5.078 -4.35,4.211 -6.27,4.375 -8.52,0.727 -1.57,-2.543 -4.75,-3.57 -6.9,-2.231 -4.35,2.711 -5.5,9.856 -1.45,9.004 1.61,-0.336 7.26,1.192 12.7,3.438 16.69,6.89 22.29,26.066 7.62,26.066 -4.54,0 -3.99,1.555 2.54,7.153 10.16,8.707 17.05,9.48 17.05,1.918 0,-2.903 -1.44,-5.442 -3.08,-5.442 -1.68,0 -3.09,-1.816 -3.09,-3.992 0,-2.395 3.63,-3.121 9.07,-1.813 5.08,1.219 9.07,0.579 9.07,-1.453 0,-1.933 2.54,-3.625 5.45,-3.625 2.9,0 4.96,-1.355 4.43,-2.902 -1.36,-3.891 1.73,-4.469 10.8,-2.035 9.07,2.433 10.94,7.066 3.99,9.902 -3.47,1.418 -2.9,3.36 2.18,7.367 6.17,4.871 6.28,5.692 1.09,7.801 -3.27,1.328 -7.47,1.328 -9.62,0 -2.17,-1.347 -3.81,-0.18 -3.81,2.723 0,6.89 19.24,9.687 24.95,3.625 2.39,-2.539 6.03,-3.793 7.89,-2.719 1.88,1.086 3.44,0.18 3.44,-1.996 0,-2.176 1.49,-3.082 3.27,-1.996 1.7,1.043 3.96,0 4.71,-2.176 0.99,-2.832 4.54,-2.195 11.07,1.996 5.26,3.375 18.32,8.465 28.84,11.246 10.52,2.778 21.7,8.2 24.67,11.973 2.87,3.629 7.42,6.203 9.62,5.441 2.26,-0.789 7.07,3.446 10.51,9.25 3.88,6.532 8.41,9.926 11.61,8.707 2.91,-1.101 6.57,0.121 8.17,2.723 3.36,5.441 -3.85,14.629 -9.07,11.563 -2.11,-1.239 -1.73,0.226 0.9,3.492 2.87,3.551 8.35,5.023 14.88,3.992 7.62,-1.203 12.82,0.848 19.77,7.797 5.08,5.082 12.87,9.433 16.87,9.433 3.99,0 7.44,1.684 7.44,3.629 0,2.176 -1.45,3.629 -3.63,3.629 -2.03,0 -3.23,1.996 -2.72,4.535 0.53,2.68 -2.36,4.078 -7.07,3.418 -12.34,-1.718 -12.68,4.586 -0.73,13.45 8.35,6.191 10.03,9.14 6.53,11.429 -3.86,2.526 -3.43,4.536 2.36,11.066 l 7.07,7.98 -11.79,-1.63 c -6.53,-0.91 -12.44,0.06 -13.24,2.17 -0.93,2.44 -1.58,2.18 -1.81,-0.72 -0.21,-2.54 -2.04,-4.54 -4.18,-4.54 -2.17,0 -2.95,1.33 -1.81,3.09 1.1,1.69 -1.27,6.02 -5.26,9.61 -3.99,3.6 -7.25,5.31 -7.25,3.81 0,-1.53 -2.55,-0.66 -5.81,2 -4.88,3.96 -7.05,3.26 -13.6,-4.36 -4.37,-5.08 -11,-11.38 -15.06,-14.33 -6.89,-4.99 -6.95,-4.9 -1.09,2 3.39,3.99 6.66,8.89 7.26,10.88 0.65,2.18 2.18,3.27 3.81,2.72 1.63,-0.54 2.72,0.55 2.72,2.72 0,2.08 -2.18,3.63 -5.08,3.63 -2.79,0 -5.92,3.27 -6.95,7.26 -2.05,7.98 -13.2,9.61 -19.9,2.9 -3.33,-3.33 -4.35,-2.9 -4.35,1.81 0,7.72 -1.45,7.75 -12.7,0.32 l -8.71,-5.76 3.27,11.61 c 1.83,6.53 4.69,13.44 6.53,15.78 1.79,2.3 5.39,10.71 7.98,18.69 2.59,7.98 7.33,18.43 10.52,23.22 4.36,6.53 4.72,9.07 1.45,10.16 -5.08,1.71 -6.37,15.59 -1.45,15.59 3.63,0 13.07,39.5 10.14,42.45 -0.93,0.94 -4.15,2.25 -6.69,2.72 -2.63,0.49 -9.62,2.17 -15.06,3.63 l -10.16,2.72 9.11,11.97 c 13.53,17.78 12.68,23.99 -2.22,16.04 -4.71,-2.51 -8.44,-2.75 -9.79,-0.62 -1.2,1.89 -5.44,4.51 -9.43,5.8 -5.99,1.95 -8.37,-0.17 -13.61,-12.15 -3.49,-7.98 -6.34,-15.9 -6.34,-17.6 0,-1.63 -4.18,-7 -8.9,-11.42 -4.71,-4.43 -7.94,-9.88 -6.89,-11.61 1.11,-1.82 -0.9,-2.78 -4.53,-2.18 -4.72,0.79 -8.79,-3.62 -14.7,-15.96 -4.51,-9.43 -11.4,-18.75 -15.41,-20.86 -4.57,-2.4 -7.16,-7.44 -7,-13.61 0.39,-14.51 -1.53,-20.31 -11.49,-34.82 -4.99,-7.26 -10.74,-11.93 -13.44,-10.89 -2.54,0.98 -4.72,0.14 -4.72,-1.81 0,-2.03 2,-4.35 4.54,-5.26 3.3,-1.19 2.9,-3.22 -1.45,-7.44 -3.25,-3.15 -9.55,-11.61 -13.79,-18.5 -4.23,-6.89 -10.87,-13.69 -14.51,-14.88 -3.63,-1.17 -9.63,-8.34 -13.06,-15.59 -3.43,-7.263 -9.48,-17.431 -13.17,-22.138 -7.1,-9.07 -9.02,-16.695 -3.34,-13.234 1.79,1.09 4.5,-9.074 5.99,-22.5 1.49,-13.422 4.77,-30.391 7.26,-37.547 4.53,-13.063 4.53,-13.063 -4.72,-11.246 -6.17,1.207 -10.86,-0.363 -14.08,-4.719 -5.36,-7.254 -34.75,-8.984 -37.01,-2.176 -0.72,2.149 -3.51,3.993 -6.05,3.993 -4.48,0 -8.82,18.136 -8.93,37.367 -0.07,11.968 -8.35,13.008 -17.37,2.175 -3.47,-4.156 -15.42,-13.554 -26.31,-20.679 -10.88,-7.125 -20.77,-13.969 -21.76,-15.055 -1.03,-1.125 -4.9,-4.367 -8.89,-7.437 -5.81,-4.465 -6.52,-4.532 -3.99,-0.364 2.43,4.008 1.63,4.489 -3.81,2.282 -11.25,-4.563 -21.17,-4.414 -26.12,0.394 -2.66,2.574 -7.26,3.629 -10.52,2.402 -3.99,-1.496 -4.96,-0.816 -3.09,2.176 1.56,2.489 0.86,6.531 -1.63,9.434 -2.49,2.902 -3.58,6.324 -2.54,7.98 1,1.59 -5.08,3.137 -13.42,3.422 -32.65,1.11 -38.45,1.867 -40.56,5.285 -1.31,2.102 -4.29,0.727 -7.09,-3.261 -5.36,-7.621 -23.462,-13.219 -23.462,-7.258 0,1.933 -2.539,1.597 -5.441,-0.727 -2.903,-2.32 -5.442,-3.168 -5.442,-1.812 0,1.367 -2.175,0.781 -4.715,-1.27 -2.929,-2.363 -6.71,-2.504 -9.976,-0.363 -4.559,2.988 -4.535,3.469 0.18,3.629 2.992,0.097 8.707,2.711 12.699,5.805 6.965,5.398 6.89,5.593 -1.817,4.867 -17.773,-1.481 -22.105,0.058 -25.558,9.097 -3.047,7.985 -5.641,9.071 -21.602,9.071 -10.16,0 -18.14,-1.594 -18.14,-3.629 0,-5.141 -6.895,-4.641 -12.7,0.926 -2.695,2.582 -7.98,6.773 -12.332,9.777 -4.355,3.008 -7.621,7.129 -7.621,9.613 0,4.703 -21.765,13.278 -29.386,11.578 -2.696,-0.605 -5.258,1.664 -5.985,5.293 -1.035,5.18 1.27,6.403 12.516,6.637 14.875,0.309 44.383,9.859 31.926,10.332 -6.168,0.238 -6.282,0.727 -1.086,4.672 7.718,5.868 1.812,11.488 -13.426,12.778 -25.031,2.13 -29.301,2.09 -37.004,-0.37 -6.168,-1.97 -7.824,-1.34 -6.352,2.41 3.079,7.85 -14.328,13.42 -41.898,13.42 -26.121,0 -30.348,2.96 -20.238,14.16 7.535,8.34 1.734,18.61 -6.61,11.7 -5.16,-4.28 -5.804,-3.36 -5.804,8.25 0,8.71 -2.239,14.45 -6.711,17.23 -3.992,2.48 -6.051,6.89 -5.082,10.88 0.882,3.63 -0.368,9.22 -2.719,12.16 -2.613,3.26 -3.484,9.79 -2.176,16.32 3.41,17.05 -0.41,22.46 -13.789,19.52 -9.066,-1.99 -10.508,-1.48 -7.437,2.61 2.832,3.78 0.734,8.35 -8.161,17.78 -8.55,9.07 -11.972,10.99 -11.972,6.71 0,-3.26 -2.723,-6.97 -5.989,-8.16 -5.281,-1.92 -5.386,-1.45 -0.906,3.99 4.356,5.29 4.172,5.83 -1.269,3.81 -3.629,-1.35 -6.332,-1.27 -6.313,0.18 0.055,3.63 6.738,13.67 7.969,11.97 2.344,-3.22 17.391,4 17.391,8.35 0,2.46 3.312,7.98 7.621,12.7 5.515,6.04 7.066,11.24 5.621,18.86 -1.168,6.17 -0.492,10.52 1.633,10.52 2.175,0 2.738,1.45 1.406,3.63 -3.348,5.47 -18.457,4.49 -24.625,-1.59 -6.895,-6.79 -9.797,-6.86 -9.797,-0.22 0,5.47 -5.078,4.81 -20.676,-2.7 -5.445,-2.61 -9.484,-2.68 -12.699,-0.21 -2.586,1.99 -9.797,3.22 -15.965,2.72 -7.254,-0.58 -11.246,0.83 -11.246,3.99 0,2.54 1.574,3.93 3.266,2.89 4.586,-2.83 24.531,10.72 40.332,27.41 7.902,8.34 16.316,14.87 19.168,14.87 2.871,0 5.105,3.63 5.136,8.35 0.075,10.16 6.895,22.12 7.657,13.42 0.796,-9.12 7.265,22.13 7.961,38.45 0.355,8.35 1.796,14.59 3.187,13.79 1.398,-0.8 3.52,1.82 4.719,5.8 1.211,4.05 7.074,12.08 13.242,18.15 9.07,8.92 10.246,11.86 6.527,16.32 -3.625,4.36 -5.55,4.6 -9.613,1.24 -7.254,-6.01 -10.043,-1.49 -3.266,5.29 3.266,3.27 5.805,7.24 5.805,9.07 0,4.4 -27.933,2.1 -40.992,-3.37 -5.445,-2.27 -11.172,-3.15 -12.336,-1.89 -1.27,1.38 -0.363,2.36 2.176,2.36 2.539,0 3.297,1.74 1.812,4.17 -1.543,2.54 -0.906,3.18 1.633,1.63 2.336,-1.42 6.168,-1.26 8.707,0.37 3.024,1.93 0.91,3.61 -6.348,5.02 -12.925,2.53 -33.738,-4.6 -55.507,-19 -8.707,-5.77 -17.043,-10.33 -18.864,-10.33 -1.867,0 -4.527,-2.18 -6.207,-5.08 -9.855,-17.02 -30.953,-4.71 -34.832,20.32 -3.093,19.95 -16.246,35.04 -30.797,35.32 -6.527,0.13 -11.605,1.98 -11.605,4.22 0,2.13 -2.543,3.06 -5.445,2 -2.903,-1.07 -5.442,-0.31 -5.442,1.63 0,2.18 -1.449,2.76 -3.625,1.45 -2.031,-1.22 -11.066,0.38 -20.5,3.63 -9.433,3.24 -19.347,4.84 -22.492,3.63 -3.266,-1.27 -4.559,-1.11 -3.086,0.36 1.34,1.33 -0.379,5.8 -3.625,9.43 -6.168,6.9 -6.168,6.9 9.07,8 2.692,0.2 6.036,2.52 7.797,5.42 2.145,3.53 7.075,4.42 16.145,2.91 11.648,-1.94 14.433,-0.73 25.758,11.24 7.55,7.99 13.781,11.96 15.367,9.8 6.351,-8.63 19.097,-16.9 28.531,-18.52 5.805,-0.99 14.102,-4.16 18.504,-7.06 4.352,-2.87 10.453,-5.26 13.422,-5.26 3.039,0 7.285,-3.45 9.613,-7.8 3.664,-6.84 6.352,-7.53 21.949,-5.62 9.797,1.2 21.524,4.25 26.121,6.8 21.407,11.85 38.821,25.4 38.821,30.2 0,2.97 4.535,6.44 9.976,7.62 5.442,1.19 11.957,2.75 14.328,3.44 6.098,1.78 16.766,18.69 17.516,27.76 0.356,4.36 2.801,8.01 5.703,8.53 2.879,0.51 9.797,2.85 15.965,5.4 12.504,5.16 11.246,4.79 28.297,8.32 7.621,1.58 13.426,4.98 13.426,7.87 0,2.78 5.078,8.68 11.246,13.05 l 11.246,7.98 -7.981,6.07 c -10.293,7.81 -8.347,20.53 2.903,18.98 4.351,-0.6 7.98,0.72 7.98,2.89 0,4.72 -29.023,34.44 -36.281,37.15 -3.266,1.22 -3.699,2.18 -1.086,2.39 2.32,0.2 3.422,2.91 2.356,5.81 -1.063,2.9 -3.348,4.6 -4.895,3.63 -1.605,-1.01 -6.715,1.35 -11.43,5.26 -6.168,5.12 -6.968,7.12 -2.902,7.25 3.266,0.11 7.449,-1.64 9.977,-4.17 2.539,-2.54 4.355,-3.22 4.355,-1.63 0,1.45 3.809,0.6 8.16,-1.81 4.356,-2.42 9.266,-4.62 10.524,-4.72 1.414,-0.11 3.371,-1.2 4.894,-2.72 4.965,-4.97 8.113,-2.9 9.969,6.53 3.078,15.65 -13.594,30.47 -34.274,30.47 -9.796,0 -17.589,-1.87 -18.867,-4.53 -1.738,-3.63 -2.609,-3.63 -4.351,0 -1.602,3.33 -16.508,4.53 -56.414,4.53 -52.969,0 -54.309,-0.19 -57.321,-8.16 -1.644,-4.35 -2.273,-9.52 -1.343,-11.06 1.972,-3.29 -5.372,-13.43 -9.723,-13.43 -3.863,0 -21.77,18.5 -21.77,22.49 0,1.96 1.09,2.69 2.723,1.82 1.496,-0.8 5.984,-0.23 9.977,1.27 6.48,2.43 6.168,3 -2.903,5.37 -12.699,3.3 -28.597,-3.24 -25.84,-10.63 1.036,-2.77 5.524,-6.03 9.879,-7.17 9.516,-2.5 7.617,-4.91 -5.804,-7.36 -8.348,-1.53 -9.797,-0.51 -9.797,6.91 0,20.5 6.168,19.6 -133.508,19.41 -107.024,-0.15 -131.25,-1.1 -139.492,-5.44 z m 464.554,-0.59 c 2.903,-1.84 3.758,-4.08 1.997,-5.22 -1.625,-1.05 -6.352,0.39 -9.977,3.05 -7.859,5.74 -0.727,7.68 7.98,2.17 z m -510.812,-23.9 c 0,-0.78 -2.539,-2.38 -5.441,-3.45 -2.903,-1.06 -5.442,-0.39 -5.442,1.45 0,1.84 2.539,3.45 5.442,3.45 2.902,0 5.441,-0.68 5.441,-1.45 z m 146.766,-2.18 c 1.187,-1.96 0.527,-4.14 -1.649,-5.44 -1.933,-1.16 -3.629,0.36 -3.629,3.27 0,6.53 2.113,7.4 5.278,2.17 z m 33.906,-3.16 c 3.34,-2.13 3.656,-5.55 1.086,-11.71 -1.965,-4.72 -3.711,-7.3 -3.809,-5.63 -0.101,1.77 -2.355,1.3 -5.258,-1.09 -3.629,-2.98 -5.804,-3.03 -7.621,-0.17 -1.344,2.11 -5.441,3.05 -8.707,1.99 -4.512,-1.46 -6.168,0 -6.168,5.44 0,5.08 2.016,6.92 6.352,5.81 3.625,-0.94 7.144,0.54 8.207,3.44 2.105,5.76 8.66,6.56 15.918,1.92 z m -213.324,-12.8 c 0,-0.84 -2.356,-2.36 -5.622,-3.63 -3.265,-1.26 -4.679,-0.66 -3.375,1.45 2.024,3.27 8.997,4.95 8.997,2.18 z m 354.968,-14.15 c 3.364,-4.02 3.516,-13.79 0.321,-20.68 -0.446,-0.97 -1.008,-4.35 -1.203,-7.26 -0.196,-2.94 -3.446,-6.02 -7.075,-6.71 -3.988,-0.75 -5.754,0.35 -4.351,2.73 1.285,2.17 0.543,3.98 -1.633,3.98 -6.168,0 -9.184,-1.74 -8.145,-4.71 0.532,-1.52 -0.562,-2.54 -2.742,-2.54 -2.176,0 -3.769,1.45 -3.988,3.63 -0.219,2.17 -0.582,4.93 -0.906,6.89 -0.328,1.96 -1.633,4.36 -3.266,5.99 -1.633,1.63 -2.723,3.88 -2.723,5.62 0,3.99 20.559,14.27 23.219,11.61 1.27,-1.27 2.176,-0.36 2.176,2.17 0,5.47 5.465,5.09 10.316,-0.72 z m -55.675,-38.82 c -7.153,-7.98 -21.536,-10.15 -19.25,-2.9 0.824,2.62 5.839,6.81 11.281,9.43 5.441,2.62 9.957,6.65 10.156,9.07 0.203,2.42 1.172,1.45 2.18,-2.18 0.953,-3.43 -1.114,-9.79 -4.367,-13.42 z m 132.429,-7.62 c 0,-2.24 2.543,-3.03 5.805,-1.79 6.402,2.43 17.992,-5.1 17.91,-11.63 -0.074,-5.97 -5.937,-5.56 -13.555,0.95 -3.629,3.1 -6.531,3.97 -6.531,1.95 0,-2 -2.359,-3.62 -5.262,-3.62 -3.156,0 -4.461,2.17 -3.261,5.44 1.508,4.11 0.359,4.82 -4.719,2.9 -5.805,-2.2 -6.039,-1.71 -1.754,3.62 5.828,7.26 11.367,8.32 11.367,2.18 z m -21.765,-10.52 c 0,-6.14 -2.36,-7.2 -15.418,-6.89 l -15.418,0.36 14.511,6.71 c 7.981,3.7 14.918,6.8 15.418,6.89 0.496,0.11 0.907,-3.08 0.907,-7.07 z m -1.09,-13.06 c -1.172,-1.17 -4.352,-1.34 -6.891,-0.36 -2.98,1.14 -2.18,1.95 2.176,2.17 3.629,0.2 5.863,-0.66 4.715,-1.81 z m 0.445,-50.43 c -9.32,-9.79 -22.93,-12.08 -25.863,-4.35 -1.113,2.93 1.293,4.99 6.371,5.44 4.422,0.39 12.156,2.31 16.871,4.17 4.715,1.87 9.289,3.54 9.977,3.63 0.71,0.1 -2.528,-3.81 -7.356,-8.89 z M 463.91,1476.66 c 0,-1.75 -4.719,-3.26 -10.16,-3.26 -5.441,0 -12.18,-2.02 -14.512,-4.35 -2.539,-2.54 -5.258,-3.45 -6.527,-2.18 -1.199,1.2 1.086,5.44 5.078,9.43 7.254,7.26 26.121,7.52 26.121,0.36 z m -497.0272,-2.35 c 0,-1.45 -1.6914,-5.26 -3.625,-8.17 -2.9023,-4.35 -3.6289,-3.8 -3.6289,2.72 0,4.36 1.6914,8.17 3.6289,8.17 2.1758,0 3.625,-1.09 3.625,-2.72 z m -71.4688,-121.72 c 1.051,-2.73 -1.09,-4.94 -5.078,-5.25 -7.621,-0.59 -9.152,4.68 -2.176,7.49 2.539,1.02 4.578,1.9 4.895,2.12 0.293,0.19 1.382,-1.82 2.359,-4.36 z m 718.285,-93.6 c -0.929,-3.63 0.121,-6.89 2.219,-6.89 2.129,0 3.824,-3.81 3.629,-8.17 -0.258,-5.8 -0.836,-6.38 -1.996,-1.99 -0.961,3.63 -3.871,5.31 -7.074,4.08 -12.336,-4.74 -21.664,20.61 -10.52,28.59 5.566,3.98 15.797,-7.64 13.742,-15.62 z m 32.789,-37.73 c -2.363,-6.17 -7.101,-7.19 -10.109,-2.18 -1.117,1.87 0.762,4.05 4.391,5.08 3.628,1.04 6.66,1.97 7.074,2.18 0.386,0.19 -0.246,-2.18 -1.356,-5.08 z m 764.312,-35.19 c 0,-4.79 -8.31,-1.82 -10.15,3.63 -0.91,2.72 0.71,3.53 4.34,2.18 3.27,-1.23 5.81,-3.77 5.81,-5.81 z m -740.101,-15.6 c 0,-5.08 -1.355,-9.07 -3.082,-9.07 -1.726,0 -2.367,3.99 -1.453,9.07 0.918,5.08 2.274,9.07 3.086,9.07 0.813,0 1.449,-3.99 1.449,-9.07 z m 3.629,-16.33 c 0,-2.18 -0.652,-3.62 -1.633,-3.62 -0.98,0 -2.504,1.44 -3.808,3.62 -1.242,2.07 -0.543,3.63 1.633,3.63 2.175,0 3.808,-1.56 3.808,-3.63 z m 705.812,-15.78 c 3.41,1.3 5.39,-0.36 5.63,-4.72 0.19,-3.66 1.1,-11.24 1.99,-16.68 0.89,-5.44 -0.1,-9.98 -2.18,-9.98 -2.06,0 -3.81,3.99 -3.81,8.71 0,4.71 -1.41,9.29 -3.08,9.97 -1.73,0.72 -4.12,5.27 -5.44,10.34 -1.32,5.08 -1.48,7.16 -0.37,4.72 1.1,-2.4 4.36,-3.46 7.26,-2.36 z m 39.25,-106.11 c -1.1,-2.91 -2.91,-4.6 -3.88,-3.63 -0.99,0.99 -0.68,3.63 0.68,5.8 3.6,5.76 5.67,4.35 3.2,-2.17 z m -68.09,-5.99 c -1.16,-4.35 -2.18,-10.28 -2.18,-12.7 0,-2.49 -3.26,-4.53 -7.25,-4.53 -7.62,0 -9.51,5.47 -3.27,9.43 2.66,1.69 2.36,3.57 -0.9,5.62 -3.92,2.47 -3.63,3.08 1.44,3.08 3.63,0 6.35,1.56 6.35,3.63 0,1.98 1.82,3.63 3.99,3.63 2.49,0 3.17,-3.08 1.82,-8.16 z m 103.03,-2.72 c 0,-2.18 -0.58,-3.63 -1.45,-3.63 -0.78,0 -4.54,-1.17 -8.16,-2.54 -5.81,-2.19 -6.04,-1.71 -1.76,3.63 5.54,6.89 11.37,8.2 11.37,2.54 z m 32.65,-18.32 c 0,-2.07 -1.45,-3.45 -3.62,-3.45 -2.11,0 -3.63,2.36 -3.63,5.62 0,3.27 1.52,4.72 3.63,3.45 2.17,-1.3 3.62,-3.55 3.62,-5.62 z m -62.03,-11.611 c -4.72,-3.636 -11.62,-9.125 -15.06,-11.972 -3.63,-3.008 -7.44,-5.262 -8.89,-5.262 -1.43,0 -6.17,-3.414 -10.88,-7.848 -10.69,-10.054 -15,-6.3 -6.92,6.036 7.12,10.882 5.59,14.699 -3.97,9.847 -3.62,-1.844 -8.54,-2.594 -11.06,-1.687 -2.5,0.902 -4.54,-0.723 -4.54,-3.625 0,-2.809 -2.54,-5.262 -5.44,-5.262 -7.05,0 -6.89,0.695 2.18,9.387 4.35,4.172 9.48,6.523 11.97,5.488 2.37,-0.992 10.7,0.824 18.32,3.988 12.7,5.278 13.76,5.278 11.69,0 -3.52,-8.949 2.64,-6.523 16.06,6.321 8.35,7.98 12.47,9.92 13.61,6.38 0.88,-2.75 -2.36,-8.158 -7.07,-11.791 z m -75.83,-25.941 c 0,-0.969 -3.81,-3.676 -8.16,-5.805 -7.98,-3.902 -8.01,-3.867 -1.27,1.524 7.62,6.093 9.43,6.918 9.43,4.281 z m 68.93,-20.09 c -13.06,-11.98 -25.68,-23.492 -28.3,-25.805 -2.49,-2.207 -4.13,-7.074 -3.47,-10.339 2.05,-10.157 -5.67,-14.911 -10.01,-6.164 -5.23,10.523 -20.98,11.621 -34.04,2.371 -5.8,-4.114 -12.96,-7.453 -15.96,-7.453 -10.1,0 3.99,21.289 19.22,29.062 9.8,4.996 13.54,8.891 12.16,12.66 -1.07,2.903 -3.94,5.528 -6.17,5.621 -2.25,0.102 2,2.489 9.25,5.203 13.79,5.153 28.3,4.067 28.3,-2.117 0,-1.933 3.81,-3.121 8.16,-2.539 4.36,0.578 7.83,2.949 7.44,5.078 -0.42,2.328 1.09,4.149 3.63,4.371 8.7,0.754 15.32,2.832 22.49,7.055 13.27,7.813 10.88,4.625 -12.7,-17.004 z m -606.948,9.75 c 2.539,-0.105 3.523,-1.543 2.359,-3.445 -1.141,-1.867 -4.172,-2.422 -7.074,-1.301 -5.43,2.102 -5.77,1.301 -2.852,-6.684 1.195,-3.261 3.555,-4.929 5.391,-3.808 1.894,1.16 3.265,-0.363 3.265,-3.625 0,-3.266 1.141,-5.246 2.719,-4.719 1.633,0.543 3.086,-0.543 3.629,-2.719 0.473,-1.894 -1.09,-3.629 -3.266,-3.629 -2.335,0 -4.89,-1.996 -5.804,-4.535 -1.09,-3.023 0.543,-3.687 4.898,-1.996 5.805,2.258 5.946,1.895 1.27,-3.265 -3.617,-3.989 -6.621,-4.672 -9.614,-2.176 -2.539,2.117 -5.714,2.797 -7.621,1.633 -1.718,-1.051 -6.527,0.324 -10.156,2.902 -5.441,3.867 -7.965,4.019 -11.973,0.727 -4.062,-3.34 -4.714,-3.086 -3.265,1.269 1.012,3.035 5.262,5.039 9.613,4.535 4.356,-0.508 7.481,0.293 7.074,1.813 -0.398,1.5 0.496,9.797 1.996,18.504 2.254,13.058 3.786,15.343 8.891,13.242 3.262,-1.348 8.215,-2.625 10.52,-2.723 z m 529.008,-13.605 c -1.31,-2.118 -4.05,-3.629 -6.59,-3.629 -2.61,0 -2.18,1.418 1.09,3.539 6.89,4.48 8.21,4.504 5.5,0.09 z m -273.24,-46.075 c -3.73,-1.433 -3.39,-3.445 1.63,-9.613 3.55,-4.355 4.11,-5.797 1.27,-3.265 -2.79,2.496 -8.34,4.535 -12.33,4.535 -7.26,0 -7.26,0 -0.19,5.261 4,2.965 8.66,5.18 10.71,5.079 1.95,-0.098 1.45,-1.02 -1.09,-1.997 z M 601.66,807.676 c -2.457,-2.903 -5.539,-4.512 -6.601,-3.446 -1.063,1.063 0.543,3.61 3.445,5.458 7.621,4.847 8.488,4.292 3.156,-2.012 z m 101.692,-66.934 c 0,-2.07 -1.45,-4.316 -3.629,-5.625 -2.106,-1.262 -3.625,0.184 -3.625,3.449 0,3.262 1.519,5.622 3.625,5.622 2.179,0 3.629,-1.379 3.629,-3.446 z m 489.768,-3.808 c 0,-1.938 -2.54,-3.629 -5.44,-3.629 -2.9,0 -5.44,1.691 -5.44,3.629 0,1.933 2.54,3.625 5.44,3.625 2.9,0 5.44,-1.692 5.44,-3.625 z M 345.402,713.352 c -2.183,-5.805 -8.468,-7.422 -8.468,-2.176 0,2.683 2.539,4.59 9.793,7.34 0.386,0.148 -0.231,-2.262 -1.325,-5.164 z M 1100.17,698.84 c -2.37,-6.168 -12.26,-7.633 -12.26,-1.817 0,2.18 1.57,3.086 3.45,1.997 2.07,-1.196 4.34,-0.543 5.69,1.632 3.43,5.551 5.49,4.356 3.12,-1.812 z m -45.09,-21.77 c -2.42,-2.902 -5.38,-4.593 -6.35,-3.625 -2.42,2.418 2.9,9.067 7.25,9.067 2.18,0 1.82,-2.176 -0.9,-5.442" /><path
             id="path26"
             style="fill:#ffbc00;fill-opacity:1;fill-rule:nonzero;stroke:none"
             d="m 1254.8,1379.44 c 0,-1.83 1.99,-4.06 4.53,-5.08 2.75,-1.1 2.18,-1.96 -1.45,-2.18 -3.36,-0.2 -10.52,-2.75 -16.33,-5.8 -8.7,-4.59 -9.19,-5.47 -3.08,-5.63 6.77,-0.17 6.71,-0.39 -0.91,-3.45 -4.48,-1.79 -13.39,-10.69 -19.77,-19.76 -8.67,-12.34 -12.75,-15.5 -16.14,-12.52 -2.53,2.23 -7.99,2.87 -12.34,1.45 -6.05,-1.97 -7.27,-4.54 -5.44,-11.43 1.25,-4.72 1,-10.93 -0.55,-13.24 -1.64,-2.47 -2.98,-9.07 -3.08,-15.24 -0.1,-6.17 -0.89,-13.24 -1.81,-16.32 -1.25,-4.15 2.54,-5.7 15.96,-6.53 14.51,-0.9 18.52,0.21 22.86,6.34 2.82,4 6.69,6.6 8.34,5.63 1.79,-1.05 5.44,-0.9 8.71,0.36 4.56,1.76 4.83,3.45 1.45,8.89 -3.92,6.3 -4.72,6.37 -13.06,1.09 -6.89,-4.36 -9.5,-4.65 -11.61,-1.27 -2.02,3.22 -3.29,3.08 -4.9,-0.55 -1.77,-3.99 -2.58,-4.06 -4.35,-0.36 -1.22,2.54 -3.62,3.66 -5.44,2.54 -1.87,-1.14 -3.27,-0.36 -3.27,1.82 0,2.09 3.27,3.8 7.26,3.8 3.99,0 7.05,1.31 6.79,2.91 -1.38,8.7 1.07,12.03 7.36,9.98 5.94,-1.94 8.07,0.36 11.79,12.69 2.51,8.35 7.44,16.92 11.06,19.23 3.63,2.32 6.53,6.1 6.53,8.53 0,5.07 17.36,17.47 20.32,14.51 3.2,-3.2 -2.18,-9.8 -7.98,-9.8 -2.91,0 -5.08,-1.55 -5.08,-3.63 0,-6.51 12.52,-3.99 18,3.63 2.87,3.99 8.24,7.25 11.93,7.25 5.7,0 6.11,1.09 2.72,7.26 -2.19,3.99 -7.26,7.26 -11.25,7.26 -3.99,0 -6.36,1.47 -5.26,3.26 1.12,1.84 -0.54,4.22 -3.81,5.44 -7.62,2.86 -8.7,2.73 -8.7,-1.08" /><path
             id="path28"
             style="fill:#ffbc00;fill-opacity:1;fill-rule:nonzero;stroke:none"
             d="m 841.215,1215.27 c -5.094,-5.8 -10.902,-10.34 -13.242,-10.34 -2.285,0 -7.868,-7.8 -12.336,-17.23 -4.469,-9.43 -13.746,-23.47 -20.5,-31.02 -9.41,-10.52 -12.074,-16.45 -11.246,-25.03 1.07,-11.04 1.453,-11.25 21.406,-11.61 17.777,-0.32 20.113,0.43 18.683,5.99 -0.933,3.63 0.079,6.35 2.36,6.35 2.215,0 3.988,-4.36 3.988,-9.8 0,-14.46 2.547,-8.7 5.137,11.61 3.008,23.58 5.301,30.84 9.738,30.84 2.176,0 2.758,1.45 1.453,3.63 -1.246,2.07 0,5.8 2.903,8.7 3.472,3.48 4.793,11.61 4.171,25.76 -0.496,11.25 -1.488,21.09 -2.179,21.59 -0.711,0.5 -5.246,-3.63 -10.336,-9.44" /><path
             id="path30"
             style="fill:#ffbc00;fill-opacity:1;fill-rule:nonzero;stroke:none"
             d="m 855.406,1142.89 c -2.164,-12.33 -1.551,-20.05 1.77,-22.31 2.281,-1.55 0.726,-2.72 -3.629,-2.72 -6.899,0 -14.02,-10.52 -12.77,-18.86 0.262,-1.74 -1.015,-2.9 -3.191,-2.9 -2.055,0 -3.629,-4.72 -3.629,-10.89 0,-6.16 -1.73,-10.88 -3.992,-10.88 -2.762,0 -2.805,-1.45 -0.141,-4.72 4.735,-5.8 28.035,-7.97 31.231,-2.9 1.457,2.31 5.191,2.5 10.269,0.54 4.356,-1.68 11.114,-4.15 14.875,-5.44 6.895,-2.36 6.895,-2.36 0,-7.8 -4.351,-3.44 -5.355,-6.11 -2.722,-7.25 2.351,-1.03 9.796,-7.28 17.054,-14.33 9.793,-9.52 15.918,-12.52 25.574,-12.52 6.895,0 14.938,-2.24 17.598,-4.9 2.684,-2.68 10.883,-6.86 18.137,-9.25 11.25,-3.7 14.637,-3.45 22.496,1.63 5.078,3.29 9.25,7.38 9.25,9.07 0,1.72 4.898,1.64 11.064,-0.18 6.17,-1.82 13.31,-2.38 16.15,-1.27 3.69,1.45 4.48,-0.18 2.9,-5.98 -1.29,-4.72 -0.25,-9.171 2.54,-10.889 3.41,-2.102 1.81,-4.453 -5.81,-8.524 -9.07,-4.847 -9.49,-5.648 -3.08,-5.804 4.1,-0.102 10.93,-4.899 15.22,-10.704 7.25,-9.796 26.32,-17.418 26.32,-10.519 0,1.996 2.54,1.973 6.53,-0.059 7.2,-3.664 23.94,-1.984 34.1,3.418 7.26,3.864 9.09,10.426 2.9,10.426 -2.03,0 -1.07,3.992 2.18,9.07 5.34,8.344 5.33,9.793 -0.15,18.145 -7.63,11.61 -7.38,16.32 0.87,16.32 5.29,0 20.13,18.14 20.79,25.39 0.42,4.72 8.82,15.99 8.92,11.98 0.21,-8.05 16.73,-4.85 34.15,6.61 30.21,19.89 21.04,24.67 -42.81,22.31 -20.32,-0.75 -50.39,-3.94 -67.48,-7.15 -17.05,-3.21 -42.68,-5.97 -57.32,-6.17 -23.222,-0.32 -27.136,0.62 -31.773,7.62 -6.484,9.79 -18.594,13.77 -25.188,8.28 -3.722,-3.1 -5.187,-2.48 -6.961,2.96 -2.804,8.64 -25.328,15.93 -35.847,11.62 -4.356,-1.79 -6.664,-3.36 -5.082,-3.45 1.597,-0.11 1.109,-3.45 -1.086,-7.44 -2.793,-5.08 -2.848,-7.26 -0.184,-7.26 2.18,0 3.813,-1.63 3.813,-3.81 0,-2.03 -3.813,-3.3 -8.164,-2.72 -4.356,0.58 -7.739,3.29 -7.258,5.81 0.484,2.51 -1.633,5.64 -4.535,6.71 -4.328,1.59 -4.961,5.62 -3.082,19.77 1.972,14.87 1.41,17.78 -3.446,17.78 -3.168,0 -8.363,3.63 -11.429,7.98 -3.067,4.35 -5.766,7.16 -5.942,6.16" /></g></g></g></g></svg>