<?xml version="1.0" encoding="UTF-8" standalone="no"?>
<svg
   width="194.0981pt"
   height="39.872375pt"
   viewBox="0 0 194.0981 39.872375"
   version="1.2"
   id="svg261"
   sodipodi:docname="hilbert.svg"
   inkscape:version="1.1.2 (0a00cf5339, 2022-02-04)"
   xmlns:inkscape="http://www.inkscape.org/namespaces/inkscape"
   xmlns:sodipodi="http://sodipodi.sourceforge.net/DTD/sodipodi-0.dtd"
   xmlns:xlink="http://www.w3.org/1999/xlink"
   xmlns="http://www.w3.org/2000/svg"
   xmlns:svg="http://www.w3.org/2000/svg">
  <sodipodi:namedview
     id="namedview263"
     pagecolor="#ffffff"
     bordercolor="#666666"
     borderopacity="1.0"
     inkscape:pageshadow="2"
     inkscape:pageopacity="0.0"
     inkscape:pagecheckerboard="0"
     inkscape:document-units="pt"
     showgrid="false"
     inkscape:zoom="0.68087121"
     inkscape:cx="129.98053"
     inkscape:cy="329.72462"
     inkscape:window-width="1862"
     inkscape:window-height="1136"
     inkscape:window-x="0"
     inkscape:window-y="0"
     inkscape:window-maximized="1"
     inkscape:current-layer="surface2520" />
  <defs
     id="defs46">
    <g
       id="g44">
      <symbol
         overflow="visible"
         id="glyph0-0">
        <path
           style="stroke:none"
           d=""
           id="path2" />
      </symbol>
      <symbol
         overflow="visible"
         id="glyph0-1">
        <path
           style="stroke:none"
           d="m 3.296875,2.390625 c 0,-0.03125 0,-0.046875 -0.171875,-0.21875 C 1.890625,0.921875 1.5625,-0.96875 1.5625,-2.5 c 0,-1.734375 0.375,-3.46875 1.609375,-4.703125 0.125,-0.125 0.125,-0.140625 0.125,-0.171875 0,-0.078125 -0.03125,-0.109375 -0.09375,-0.109375 -0.109375,0 -1,0.6875 -1.59375,1.953125 -0.5,1.09375 -0.625,2.203125 -0.625,3.03125 0,0.78125 0.109375,1.984375 0.65625,3.125 C 2.25,1.84375 3.09375,2.5 3.203125,2.5 c 0.0625,0 0.09375,-0.03125 0.09375,-0.109375 z m 0,0"
           id="path5" />
      </symbol>
      <symbol
         overflow="visible"
         id="glyph0-2">
        <path
           style="stroke:none"
           d="m 2.9375,-6.375 c 0,-0.25 0,-0.265625 -0.234375,-0.265625 C 2.078125,-6 1.203125,-6 0.890625,-6 v 0.3125 c 0.203125,0 0.78125,0 1.296875,-0.265625 v 5.171875 c 0,0.359375 -0.03125,0.46875 -0.921875,0.46875 h -0.3125 V 0 c 0.34375,-0.03125 1.203125,-0.03125 1.609375,-0.03125 0.390625,0 1.265625,0 1.609375,0.03125 v -0.3125 h -0.3125 c -0.90625,0 -0.921875,-0.109375 -0.921875,-0.46875 z m 0,0"
           id="path8" />
      </symbol>
      <symbol
         overflow="visible"
         id="glyph0-3">
        <path
           style="stroke:none"
           d="m 2.875,-2.5 c 0,-0.765625 -0.109375,-1.96875 -0.65625,-3.109375 -0.59375,-1.21875 -1.453125,-1.875 -1.546875,-1.875 -0.0625,0 -0.109375,0.046875 -0.109375,0.109375 0,0.03125 0,0.046875 0.1875,0.234375 0.984375,0.984375 1.546875,2.5625 1.546875,4.640625 0,1.71875 -0.359375,3.46875 -1.59375,4.71875 C 0.5625,2.34375 0.5625,2.359375 0.5625,2.390625 0.5625,2.453125 0.609375,2.5 0.671875,2.5 0.765625,2.5 1.671875,1.8125 2.25,0.546875 2.765625,-0.546875 2.875,-1.65625 2.875,-2.5 Z m 0,0"
           id="path11" />
      </symbol>
      <symbol
         overflow="visible"
         id="glyph0-4">
        <path
           style="stroke:none"
           d="m 1.265625,-0.765625 1.0625,-1.03125 c 1.546875,-1.375 2.140625,-1.90625 2.140625,-2.90625 0,-1.140625 -0.890625,-1.9375 -2.109375,-1.9375 -1.125,0 -1.859375,0.921875 -1.859375,1.8125 0,0.546875 0.5,0.546875 0.53125,0.546875 0.171875,0 0.515625,-0.109375 0.515625,-0.53125 0,-0.25 -0.1875,-0.515625 -0.53125,-0.515625 -0.078125,0 -0.09375,0 -0.125,0.015625 0.21875,-0.65625 0.765625,-1.015625 1.34375,-1.015625 0.90625,0 1.328125,0.8125 1.328125,1.625 C 3.5625,-3.90625 3.078125,-3.125 2.515625,-2.5 l -1.90625,2.125 C 0.5,-0.265625 0.5,-0.234375 0.5,0 H 4.203125 L 4.46875,-1.734375 H 4.234375 C 4.171875,-1.4375 4.109375,-1 4,-0.84375 3.9375,-0.765625 3.28125,-0.765625 3.0625,-0.765625 Z m 0,0"
           id="path14" />
      </symbol>
      <symbol
         overflow="visible"
         id="glyph0-5">
        <path
           style="stroke:none"
           d="m 2.890625,-3.515625 c 0.8125,-0.265625 1.390625,-0.953125 1.390625,-1.75 0,-0.8125 -0.875,-1.375 -1.828125,-1.375 -1,0 -1.765625,0.59375 -1.765625,1.359375 0,0.328125 0.21875,0.515625 0.515625,0.515625 0.296875,0 0.5,-0.21875 0.5,-0.515625 0,-0.484375 -0.46875,-0.484375 -0.609375,-0.484375 0.296875,-0.5 0.953125,-0.625 1.3125,-0.625 0.421875,0 0.96875,0.21875 0.96875,1.109375 0,0.125 -0.03125,0.703125 -0.28125,1.140625 C 2.796875,-3.65625 2.453125,-3.625 2.203125,-3.625 2.125,-3.609375 1.890625,-3.59375 1.8125,-3.59375 c -0.078125,0.015625 -0.140625,0.03125 -0.140625,0.125 0,0.109375 0.0625,0.109375 0.234375,0.109375 h 0.4375 c 0.8125,0 1.1875,0.671875 1.1875,1.65625 0,1.359375 -0.6875,1.640625 -1.125,1.640625 -0.4375,0 -1.1875,-0.171875 -1.53125,-0.75 0.34375,0.046875 0.65625,-0.171875 0.65625,-0.546875 0,-0.359375 -0.265625,-0.5625 -0.546875,-0.5625 -0.25,0 -0.5625,0.140625 -0.5625,0.578125 0,0.90625 0.921875,1.5625 2.015625,1.5625 1.21875,0 2.125,-0.90625 2.125,-1.921875 0,-0.8125 -0.640625,-1.59375 -1.671875,-1.8125 z m 0,0"
           id="path17" />
      </symbol>
      <symbol
         overflow="visible"
         id="glyph1-0">
        <path
           style="stroke:none"
           d=""
           id="path20" />
      </symbol>
      <symbol
         overflow="visible"
         id="glyph1-1">
        <path
           style="stroke:none"
           d="M 1.78125,-1.140625 C 1.390625,-0.484375 1,-0.34375 0.5625,-0.3125 0.4375,-0.296875 0.34375,-0.296875 0.34375,-0.109375 0.34375,-0.046875 0.40625,0 0.484375,0 0.75,0 1.0625,-0.03125 1.328125,-0.03125 c 0.34375,0 0.6875,0.03125 1,0.03125 0.0625,0 0.1875,0 0.1875,-0.1875 0,-0.109375 -0.078125,-0.125 -0.15625,-0.125 -0.21875,-0.015625 -0.46875,-0.09375 -0.46875,-0.34375 0,-0.125 0.0625,-0.234375 0.140625,-0.375 l 0.765625,-1.265625 h 2.5 c 0.015625,0.203125 0.15625,1.5625 0.15625,1.65625 0,0.296875 -0.515625,0.328125 -0.71875,0.328125 C 4.59375,-0.3125 4.5,-0.3125 4.5,-0.109375 4.5,0 4.609375,0 4.640625,0 5.046875,0 5.46875,-0.03125 5.875,-0.03125 6.125,-0.03125 6.765625,0 7.015625,0 7.0625,0 7.1875,0 7.1875,-0.203125 7.1875,-0.3125 7.09375,-0.3125 6.953125,-0.3125 6.34375,-0.3125 6.34375,-0.375 6.3125,-0.671875 l -0.609375,-6.21875 c -0.015625,-0.203125 -0.015625,-0.25 -0.1875,-0.25 -0.15625,0 -0.203125,0.078125 -0.265625,0.171875 z M 2.984375,-2.609375 4.9375,-5.90625 5.265625,-2.609375 Z m 0,0"
           id="path23" />
      </symbol>
      <symbol
         overflow="visible"
         id="glyph1-2">
        <path
           style="stroke:none"
           d="M 0.453125,1.21875 C 0.375,1.5625 0.34375,1.625 -0.09375,1.625 c -0.109375,0 -0.21875,0 -0.21875,0.1875 0,0.078125 0.046875,0.125 0.125,0.125 0.265625,0 0.5625,-0.03125 0.828125,-0.03125 0.34375,0 0.671875,0.03125 1,0.03125 0.046875,0 0.171875,0 0.171875,-0.203125 C 1.8125,1.625 1.71875,1.625 1.578125,1.625 c -0.5,0 -0.5,-0.0625 -0.5,-0.15625 0,-0.125 0.421875,-1.75 0.484375,-2 0.125,0.296875 0.40625,0.640625 0.921875,0.640625 1.15625,0 2.40625,-1.453125 2.40625,-2.921875 0,-0.9375 -0.578125,-1.59375 -1.328125,-1.59375 -0.5,0 -0.984375,0.359375 -1.3125,0.75 -0.09375,-0.546875 -0.53125,-0.75 -0.890625,-0.75 -0.46875,0 -0.65625,0.390625 -0.734375,0.5625 C 0.4375,-3.5 0.3125,-2.90625 0.3125,-2.875 c 0,0.109375 0.09375,0.109375 0.109375,0.109375 0.109375,0 0.109375,-0.015625 0.171875,-0.234375 0.171875,-0.703125 0.375,-1.1875 0.734375,-1.1875 0.171875,0 0.3125,0.078125 0.3125,0.453125 0,0.234375 -0.03125,0.34375 -0.078125,0.515625 z m 1.75,-4.328125 C 2.265625,-3.375 2.546875,-3.65625 2.71875,-3.8125 c 0.359375,-0.296875 0.640625,-0.375 0.8125,-0.375 0.390625,0 0.640625,0.34375 0.640625,0.9375 0,0.59375 -0.328125,1.734375 -0.515625,2.109375 -0.34375,0.703125 -0.8125,1.03125 -1.1875,1.03125 C 1.8125,-0.109375 1.6875,-0.9375 1.6875,-1 c 0,-0.015625 0,-0.03125 0.03125,-0.15625 z m 0,0"
           id="path26" />
      </symbol>
      <symbol
         overflow="visible"
         id="glyph1-3">
        <path
           style="stroke:none"
           d="m 4.5,-4.296875 c 0,-0.046875 -0.03125,-0.09375 -0.09375,-0.09375 -0.109375,0 -0.515625,0.390625 -0.671875,0.6875 C 3.515625,-4.25 3.125,-4.40625 2.796875,-4.40625 c -1.171875,0 -2.390625,1.46875 -2.390625,2.921875 0,0.96875 0.578125,1.59375 1.3125,1.59375 0.421875,0 0.8125,-0.234375 1.171875,-0.59375 -0.09375,0.34375 -0.421875,1.6875 -0.453125,1.78125 -0.078125,0.28125 -0.15625,0.3125 -0.71875,0.328125 -0.125,0 -0.21875,0 -0.21875,0.203125 0,0 0,0.109375 0.125,0.109375 0.3125,0 0.671875,-0.03125 1,-0.03125 0.328125,0 0.6875,0.03125 1.03125,0.03125 0.046875,0 0.171875,0 0.171875,-0.203125 C 3.828125,1.625 3.734375,1.625 3.5625,1.625 3.09375,1.625 3.09375,1.5625 3.09375,1.46875 3.09375,1.390625 3.109375,1.328125 3.125,1.25 Z m -2.75,4.1875 c -0.609375,0 -0.640625,-0.765625 -0.640625,-0.9375 0,-0.484375 0.28125,-1.5625 0.453125,-1.984375 0.3125,-0.734375 0.828125,-1.15625 1.234375,-1.15625 0.65625,0 0.796875,0.8125 0.796875,0.875 0,0.0625 -0.546875,2.25 -0.578125,2.28125 C 2.859375,-0.75 2.296875,-0.109375 1.75,-0.109375 Z m 0,0"
           id="path29" />
      </symbol>
      <symbol
         overflow="visible"
         id="glyph1-4">
        <path
           style="stroke:none"
           d="m 0.875,-0.59375 c -0.03125,0.15625 -0.09375,0.390625 -0.09375,0.4375 0,0.171875 0.140625,0.265625 0.296875,0.265625 0.125,0 0.296875,-0.078125 0.375,-0.28125 C 1.46875,-0.203125 1.796875,-1.5625 1.84375,-1.75 c 0.078125,-0.328125 0.265625,-1.015625 0.3125,-1.296875 0.046875,-0.125 0.328125,-0.59375 0.5625,-0.8125 0.078125,-0.0625 0.375,-0.328125 0.796875,-0.328125 0.265625,0 0.40625,0.125 0.421875,0.125 -0.296875,0.046875 -0.515625,0.28125 -0.515625,0.546875 0,0.15625 0.109375,0.34375 0.375,0.34375 0.265625,0 0.546875,-0.234375 0.546875,-0.59375 0,-0.34375 -0.3125,-0.640625 -0.828125,-0.640625 C 2.875,-4.40625 2.4375,-3.921875 2.25,-3.640625 2.15625,-4.09375 1.796875,-4.40625 1.328125,-4.40625 0.875,-4.40625 0.6875,-4.015625 0.59375,-3.84375 0.421875,-3.5 0.296875,-2.90625 0.296875,-2.875 c 0,0.109375 0.09375,0.109375 0.109375,0.109375 0.109375,0 0.109375,-0.015625 0.171875,-0.234375 0.171875,-0.703125 0.375,-1.1875 0.734375,-1.1875 0.15625,0 0.296875,0.078125 0.296875,0.453125 0,0.21875 -0.03125,0.328125 -0.15625,0.84375 z m 0,0"
           id="path32" />
      </symbol>
      <symbol
         overflow="visible"
         id="glyph2-0">
        <path
           style="stroke:none"
           d=""
           id="path35" />
      </symbol>
      <symbol
         overflow="visible"
         id="glyph2-1">
        <path
           style="stroke:none"
           d="M 8.3125,-2.296875 C 7.765625,-1.875 7.5,-1.46875 7.421875,-1.328125 c -0.453125,0.6875 -0.53125,1.3125 -0.53125,1.3125 0,0.125 0.125,0.125 0.203125,0.125 C 7.25,0.109375 7.265625,0.09375 7.3125,-0.09375 7.53125,-1.0625 8.125,-1.90625 9.25,-2.359375 9.375,-2.40625 9.40625,-2.421875 9.40625,-2.5 c 0,-0.0625 -0.0625,-0.09375 -0.078125,-0.109375 C 8.875,-2.765625 7.671875,-3.265625 7.296875,-4.9375 7.265625,-5.0625 7.25,-5.09375 7.09375,-5.09375 c -0.078125,0 -0.203125,0 -0.203125,0.125 0,0.015625 0.09375,0.640625 0.5,1.3125 0.203125,0.296875 0.5,0.640625 0.921875,0.96875 H 0.90625 c -0.171875,0 -0.359375,0 -0.359375,0.1875 0,0.203125 0.1875,0.203125 0.359375,0.203125 z m 0,0"
           id="path38" />
      </symbol>
      <symbol
         overflow="visible"
         id="glyph2-2">
        <path
           style="stroke:none"
           d="m 6.09375,-3.1875 c 0,-0.328125 -0.03125,-0.359375 -0.359375,-0.359375 h -4.84375 c -0.15625,0 -0.34375,0 -0.34375,0.203125 0,0.1875 0.1875,0.1875 0.34375,0.1875 H 5.6875 V -1.25 c 0,0.1875 0,0.359375 0.203125,0.359375 0.203125,0 0.203125,-0.171875 0.203125,-0.359375 z m 0,0"
           id="path41" />
      </symbol>
    </g>
  </defs>
  <g
     id="surface2520"
     transform="translate(-208.56737,-149.19763)">
    <g
       style="fill:#000000;fill-opacity:1"
       id="g50">
      <use
         xlink:href="#glyph0-1"
         x="207.58299"
         y="156.68201"
         id="use48"
         width="100%"
         height="100%" />
    </g>
    <g
       style="fill:#000000;fill-opacity:1"
       id="g54">
      <use
         xlink:href="#glyph1-1"
         x="211.457"
         y="156.68201"
         id="use52"
         width="100%"
         height="100%" />
    </g>
    <g
       style="fill:#000000;fill-opacity:1"
       id="g60">
      <use
         xlink:href="#glyph0-2"
         x="218.929"
         y="156.68201"
         id="use56"
         width="100%"
         height="100%" />
      <use
         xlink:href="#glyph0-3"
         x="223.91029"
         y="156.68201"
         id="use58"
         width="100%"
         height="100%" />
    </g>
    <g
       style="fill:#000000;fill-opacity:1"
       id="g64">
      <use
         xlink:href="#glyph1-2"
         x="237.74699"
         y="156.68201"
         id="use62"
         width="100%"
         height="100%" />
    </g>
    <g
       style="fill:#000000;fill-opacity:1"
       id="g68">
      <use
         xlink:href="#glyph2-1"
         x="245.52699"
         y="156.68201"
         id="use66"
         width="100%"
         height="100%" />
    </g>
    <g
       style="fill:#000000;fill-opacity:1"
       id="g72">
      <use
         xlink:href="#glyph0-1"
         x="258.25699"
         y="156.68201"
         id="use70"
         width="100%"
         height="100%" />
    </g>
    <g
       style="fill:#000000;fill-opacity:1"
       id="g76">
      <use
         xlink:href="#glyph1-3"
         x="262.13101"
         y="156.68201"
         id="use74"
         width="100%"
         height="100%" />
    </g>
    <g
       style="fill:#000000;fill-opacity:1"
       id="g80">
      <use
         xlink:href="#glyph2-1"
         x="269.70401"
         y="156.68201"
         id="use78"
         width="100%"
         height="100%" />
    </g>
    <g
       style="fill:#000000;fill-opacity:1"
       id="g84">
      <use
         xlink:href="#glyph1-2"
         x="282.43399"
         y="156.68201"
         id="use82"
         width="100%"
         height="100%" />
    </g>
    <g
       style="fill:#000000;fill-opacity:1"
       id="g88">
      <use
         xlink:href="#glyph0-3"
         x="287.44601"
         y="156.68201"
         id="use86"
         width="100%"
         height="100%" />
    </g>
    <g
       style="fill:#000000;fill-opacity:1"
       id="g92">
      <use
         xlink:href="#glyph0-1"
         x="207.58299"
         y="171.62601"
         id="use90"
         width="100%"
         height="100%" />
    </g>
    <g
       style="fill:#000000;fill-opacity:1"
       id="g96">
      <use
         xlink:href="#glyph1-1"
         x="211.457"
         y="171.62601"
         id="use94"
         width="100%"
         height="100%" />
    </g>
    <g
       style="fill:#000000;fill-opacity:1"
       id="g102">
      <use
         xlink:href="#glyph0-4"
         x="218.929"
         y="171.62601"
         id="use98"
         width="100%"
         height="100%" />
      <use
         xlink:href="#glyph0-3"
         x="223.91029"
         y="171.62601"
         id="use100"
         width="100%"
         height="100%" />
    </g>
    <g
       style="fill:#000000;fill-opacity:1"
       id="g106">
      <use
         xlink:href="#glyph0-1"
         x="237.74736"
         y="171.62601"
         id="use104"
         width="100%"
         height="100%" />
    </g>
    <g
       style="fill:#000000;fill-opacity:1"
       id="g110">
      <use
         xlink:href="#glyph1-2"
         x="241.62199"
         y="171.62601"
         id="use108"
         width="100%"
         height="100%" />
    </g>
    <g
       style="fill:#000000;fill-opacity:1"
       id="g114">
      <use
         xlink:href="#glyph2-1"
         x="249.40199"
         y="171.62601"
         id="use112"
         width="100%"
         height="100%" />
    </g>
    <g
       style="fill:#000000;fill-opacity:1"
       id="g118">
      <use
         xlink:href="#glyph0-1"
         x="262.13199"
         y="171.62601"
         id="use116"
         width="100%"
         height="100%" />
    </g>
    <g
       style="fill:#000000;fill-opacity:1"
       id="g122">
      <use
         xlink:href="#glyph1-3"
         x="266.00601"
         y="171.62601"
         id="use120"
         width="100%"
         height="100%" />
    </g>
    <g
       style="fill:#000000;fill-opacity:1"
       id="g126">
      <use
         xlink:href="#glyph2-1"
         x="273.578"
         y="171.62601"
         id="use124"
         width="100%"
         height="100%" />
    </g>
    <g
       style="fill:#000000;fill-opacity:1"
       id="g130">
      <use
         xlink:href="#glyph1-4"
         x="286.30801"
         y="171.62601"
         id="use128"
         width="100%"
         height="100%" />
    </g>
    <g
       style="fill:#000000;fill-opacity:1"
       id="g136">
      <use
         xlink:href="#glyph0-3"
         x="291.07999"
         y="171.62601"
         id="use132"
         width="100%"
         height="100%" />
      <use
         xlink:href="#glyph0-3"
         x="294.95447"
         y="171.62601"
         id="use134"
         width="100%"
         height="100%" />
    </g>
    <g
       style="fill:#000000;fill-opacity:1"
       id="g140">
      <use
         xlink:href="#glyph2-1"
         x="301.59601"
         y="171.62601"
         id="use138"
         width="100%"
         height="100%" />
    </g>
    <g
       style="fill:#000000;fill-opacity:1"
       id="g146">
      <use
         xlink:href="#glyph0-1"
         x="314.32599"
         y="171.62601"
         id="use142"
         width="100%"
         height="100%" />
      <use
         xlink:href="#glyph0-1"
         x="318.20047"
         y="171.62601"
         id="use144"
         width="100%"
         height="100%" />
    </g>
    <g
       style="fill:#000000;fill-opacity:1"
       id="g150">
      <use
         xlink:href="#glyph1-2"
         x="322.07401"
         y="171.62601"
         id="use148"
         width="100%"
         height="100%" />
    </g>
    <g
       style="fill:#000000;fill-opacity:1"
       id="g154">
      <use
         xlink:href="#glyph2-1"
         x="329.854"
         y="171.62601"
         id="use152"
         width="100%"
         height="100%" />
    </g>
    <g
       style="fill:#000000;fill-opacity:1"
       id="g158">
      <use
         xlink:href="#glyph1-3"
         x="342.58401"
         y="171.62601"
         id="use156"
         width="100%"
         height="100%" />
    </g>
    <g
       style="fill:#000000;fill-opacity:1"
       id="g162">
      <use
         xlink:href="#glyph0-3"
         x="347.38901"
         y="171.62601"
         id="use160"
         width="100%"
         height="100%" />
    </g>
    <g
       style="fill:#000000;fill-opacity:1"
       id="g166">
      <use
         xlink:href="#glyph2-1"
         x="354.03101"
         y="171.62601"
         id="use164"
         width="100%"
         height="100%" />
    </g>
    <g
       style="fill:#000000;fill-opacity:1"
       id="g170">
      <use
         xlink:href="#glyph0-1"
         x="366.76099"
         y="171.62601"
         id="use168"
         width="100%"
         height="100%" />
    </g>
    <g
       style="fill:#000000;fill-opacity:1"
       id="g174">
      <use
         xlink:href="#glyph1-2"
         x="370.63501"
         y="171.62601"
         id="use172"
         width="100%"
         height="100%" />
    </g>
    <g
       style="fill:#000000;fill-opacity:1"
       id="g178">
      <use
         xlink:href="#glyph2-1"
         x="378.41501"
         y="171.62601"
         id="use176"
         width="100%"
         height="100%" />
    </g>
    <g
       style="fill:#000000;fill-opacity:1"
       id="g182">
      <use
         xlink:href="#glyph1-4"
         x="391.14499"
         y="171.62601"
         id="use180"
         width="100%"
         height="100%" />
    </g>
    <g
       style="fill:#000000;fill-opacity:1"
       id="g188">
      <use
         xlink:href="#glyph0-3"
         x="395.91599"
         y="171.62601"
         id="use184"
         width="100%"
         height="100%" />
      <use
         xlink:href="#glyph0-3"
         x="399.79047"
         y="171.62601"
         id="use186"
         width="100%"
         height="100%" />
    </g>
    <g
       style="fill:#000000;fill-opacity:1"
       id="g192">
      <use
         xlink:href="#glyph0-1"
         x="207.58299"
         y="186.57001"
         id="use190"
         width="100%"
         height="100%" />
    </g>
    <g
       style="fill:#000000;fill-opacity:1"
       id="g196">
      <use
         xlink:href="#glyph1-1"
         x="211.457"
         y="186.57001"
         id="use194"
         width="100%"
         height="100%" />
    </g>
    <g
       style="fill:#000000;fill-opacity:1"
       id="g202">
      <use
         xlink:href="#glyph0-5"
         x="218.929"
         y="186.57001"
         id="use198"
         width="100%"
         height="100%" />
      <use
         xlink:href="#glyph0-3"
         x="223.91029"
         y="186.57001"
         id="use200"
         width="100%"
         height="100%" />
    </g>
    <g
       style="fill:#000000;fill-opacity:1"
       id="g206">
      <use
         xlink:href="#glyph0-1"
         x="237.74736"
         y="186.57001"
         id="use204"
         width="100%"
         height="100%" />
    </g>
    <g
       style="fill:#000000;fill-opacity:1"
       id="g210">
      <use
         xlink:href="#glyph2-2"
         x="241.62199"
         y="186.57001"
         id="use208"
         width="100%"
         height="100%" />
    </g>
    <g
       style="fill:#000000;fill-opacity:1"
       id="g214">
      <use
         xlink:href="#glyph1-2"
         x="248.26401"
         y="186.57001"
         id="use212"
         width="100%"
         height="100%" />
    </g>
    <g
       style="fill:#000000;fill-opacity:1"
       id="g218">
      <use
         xlink:href="#glyph2-1"
         x="256.043"
         y="186.57001"
         id="use216"
         width="100%"
         height="100%" />
    </g>
    <g
       style="fill:#000000;fill-opacity:1"
       id="g222">
      <use
         xlink:href="#glyph2-2"
         x="268.77521"
         y="186.57001"
         id="use220"
         width="100%"
         height="100%" />
    </g>
    <g
       style="fill:#000000;fill-opacity:1"
       id="g226">
      <use
         xlink:href="#glyph1-3"
         x="275.41501"
         y="186.57001"
         id="use224"
         width="100%"
         height="100%" />
    </g>
    <g
       style="fill:#000000;fill-opacity:1"
       id="g230">
      <use
         xlink:href="#glyph0-3"
         x="280.22"
         y="186.57001"
         id="use228"
         width="100%"
         height="100%" />
    </g>
    <g
       style="fill:#000000;fill-opacity:1"
       id="g234">
      <use
         xlink:href="#glyph2-1"
         x="286.862"
         y="186.57001"
         id="use232"
         width="100%"
         height="100%" />
    </g>
    <g
       style="fill:#000000;fill-opacity:1"
       id="g238">
      <use
         xlink:href="#glyph0-1"
         x="299.59201"
         y="186.57001"
         id="use236"
         width="100%"
         height="100%" />
    </g>
    <g
       style="fill:#000000;fill-opacity:1"
       id="g242">
      <use
         xlink:href="#glyph1-3"
         x="303.466"
         y="186.57001"
         id="use240"
         width="100%"
         height="100%" />
    </g>
    <g
       style="fill:#000000;fill-opacity:1"
       id="g246">
      <use
         xlink:href="#glyph2-1"
         x="311.03799"
         y="186.57001"
         id="use244"
         width="100%"
         height="100%" />
    </g>
    <g
       style="fill:#000000;fill-opacity:1"
       id="g250">
      <use
         xlink:href="#glyph1-2"
         x="323.76801"
         y="186.57001"
         id="use248"
         width="100%"
         height="100%" />
    </g>
    <g
       style="fill:#000000;fill-opacity:1"
       id="g254">
      <use
         xlink:href="#glyph0-3"
         x="328.78101"
         y="186.57001"
         id="use252"
         width="100%"
         height="100%" />
    </g>
    <g
       style="fill:#000000;fill-opacity:1"
       id="g258">
      <use
         xlink:href="#glyph0-2"
         x="303.133"
         y="702.63501"
         id="use256"
         width="100%"
         height="100%" />
    </g>
  </g>
</svg>
